<svg width="300" height="300" viewBox="0 0 300 300" fill="none" xmlns="http://www.w3.org/2000/svg">
<mask id="path-1-inside-1_22_10" fill="white">
<path d="M0 102.4C0 66.5566 0 48.635 6.97558 34.9446C13.1115 22.9022 22.9022 13.1115 34.9446 6.97558C48.635 0 66.5566 0 102.4 0H197.6C233.443 0 251.365 0 265.055 6.97558C277.098 13.1115 286.889 22.9022 293.024 34.9446C300 48.635 300 66.5566 300 102.4V197.6C300 233.443 300 251.365 293.024 265.055C286.889 277.098 277.098 286.889 265.055 293.024C251.365 300 233.443 300 197.6 300H193V99L93 100L93 300C57.1567 300 48.635 300 34.9446 293.024C22.9022 286.889 13.1115 277.098 6.97558 265.055C0 251.365 0 233.443 0 197.6V102.4Z"/>
</mask>
<path d="M93 300V312H105L105 300L93 300ZM34.9446 293.024L40.3925 282.332L34.9446 293.024ZM6.97558 265.055L17.6677 259.608L6.97558 265.055ZM293.024 265.055L282.332 259.608L293.024 265.055ZM265.055 293.024L259.608 282.332L265.055 293.024ZM265.055 6.97558L259.608 17.6677L265.055 6.97558ZM293.024 34.9446L282.332 40.3925L293.024 34.9446ZM34.9446 6.97558L40.3925 17.6677L34.9446 6.97558ZM6.97558 34.9446L17.6677 40.3925L6.97558 34.9446ZM93 100L92.88 88.0006L81 88.1194L81 100L93 100ZM193 300H181V312H193V300ZM193 99H205V86.8794L192.88 87.0006L193 99ZM102.4 12H197.6V-12H102.4V12ZM288 102.4V197.6H312V102.4H288ZM12 197.6V102.4H-12V197.6H12ZM93 288C56.308 288 51.0022 287.738 40.3925 282.332L29.4967 303.716C46.2678 312.262 58.0053 312 93 312V288ZM-12 197.6C-12 215.324 -12.0093 229.338 -11.0882 240.612C-10.1556 252.026 -8.20989 261.684 -3.7165 270.503L17.6677 259.608C15.1855 254.736 13.6434 248.588 12.8321 238.658C12.0093 228.588 12 215.72 12 197.6H-12ZM40.3925 282.332C30.6081 277.347 22.6531 269.392 17.6677 259.608L-3.7165 270.503C3.56988 284.804 15.1964 296.43 29.4967 303.716L40.3925 282.332ZM288 197.6C288 215.72 287.991 228.588 287.168 238.658C286.357 248.588 284.815 254.736 282.332 259.608L303.716 270.503C308.21 261.684 310.156 252.026 311.088 240.612C312.009 229.338 312 215.324 312 197.6H288ZM197.6 312C215.324 312 229.338 312.009 240.612 311.088C252.026 310.156 261.684 308.21 270.503 303.716L259.608 282.332C254.736 284.815 248.588 286.357 238.658 287.168C228.588 287.991 215.72 288 197.6 288V312ZM282.332 259.608C277.347 269.392 269.392 277.347 259.608 282.332L270.503 303.716C284.804 296.43 296.43 284.804 303.716 270.503L282.332 259.608ZM197.6 12C215.72 12 228.588 12.0093 238.658 12.8321C248.588 13.6434 254.736 15.1855 259.608 17.6677L270.503 -3.7165C261.684 -8.20989 252.026 -10.1556 240.612 -11.0882C229.338 -12.0093 215.324 -12 197.6 -12V12ZM312 102.4C312 84.6763 312.009 70.6619 311.088 59.3877C310.156 47.9735 308.21 38.3155 303.716 29.4967L282.332 40.3925C284.815 45.2641 286.357 51.4121 287.168 61.3421C287.991 71.4122 288 84.2803 288 102.4H312ZM259.608 17.6677C269.392 22.6531 277.347 30.6081 282.332 40.3925L303.716 29.4967C296.43 15.1964 284.804 3.56988 270.503 -3.7165L259.608 17.6677ZM102.4 -12C84.6763 -12 70.6619 -12.0093 59.3877 -11.0882C47.9735 -10.1556 38.3155 -8.20989 29.4967 -3.7165L40.3925 17.6677C45.2641 15.1855 51.4121 13.6434 61.3421 12.8321C71.4122 12.0093 84.2803 12 102.4 12V-12ZM12 102.4C12 84.2803 12.0093 71.4122 12.8321 61.3421C13.6434 51.4121 15.1855 45.2641 17.6677 40.3925L-3.7165 29.4967C-8.20989 38.3155 -10.1556 47.9735 -11.0882 59.3877C-12.0093 70.6619 -12 84.6763 -12 102.4H12ZM29.4967 -3.7165C15.1964 3.56988 3.56988 15.1964 -3.7165 29.4967L17.6677 40.3925C22.6531 30.6081 30.6081 22.6531 40.3925 17.6677L29.4967 -3.7165ZM81 100L81 300L105 300L105 100L81 100ZM197.6 288H193V312H197.6V288ZM205 300V99H181V300H205ZM192.88 87.0006L92.88 88.0006L93.12 111.999L193.12 110.999L192.88 87.0006Z" fill="white" mask="url(#path-1-inside-1_22_10)"/>
</svg>
